<svg width="32" height="32" viewBox="0 0 32 32" fill="none" xmlns="http://www.w3.org/2000/svg">
<path fill-rule="evenodd" clip-rule="evenodd" d="M10.1599 0H21.9614C27.392 0 31.796 4.40393 31.796 9.83459V21.6361C31.796 27.0668 27.392 31.4707 21.9614 31.4707H10.1599C4.7292 31.4707 0.325272 27.0668 0.325272 21.6361V9.83459C0.325272 4.40393 4.7292 0 10.1599 0ZM21.9614 28.5203C25.7575 28.5203 28.8456 25.4323 28.8456 21.6361V9.83459C28.8456 6.03844 25.7575 2.95038 21.9614 2.95038H10.1599C6.36372 2.95038 3.27566 6.03844 3.27566 9.83459V21.6361C3.27566 25.4323 6.36372 28.5203 10.1599 28.5203H21.9614Z" fill="#FFFFF2"/>
<path fill-rule="evenodd" clip-rule="evenodd" d="M8.19296 15.7354C8.19296 11.3904 11.7157 7.86768 16.0606 7.86768C20.4056 7.86768 23.9283 11.3904 23.9283 15.7354C23.9283 20.0803 20.4056 23.603 16.0606 23.603C11.7157 23.603 8.19296 20.0803 8.19296 15.7354ZM11.1433 15.7354C11.1433 18.4458 13.3502 20.6526 16.0606 20.6526C18.771 20.6526 20.9779 18.4458 20.9779 15.7354C20.9779 13.023 18.771 10.8181 16.0606 10.8181C13.3502 10.8181 11.1433 13.023 11.1433 15.7354Z" fill="#FFFFF2"/>
<circle cx="24.5184" cy="7.27786" r="1.04837" fill="#FFFFF2"/>
</svg>
