<svg width="33" height="27" viewBox="0 0 33 27" fill="none" xmlns="http://www.w3.org/2000/svg">
<path d="M32.1058 3.88793C30.9355 4.40129 29.6885 4.74157 28.3884 4.90679C29.7259 4.10822 30.7467 2.85333 31.2266 1.34077C29.9796 2.08426 28.6027 2.60943 27.1354 2.9025C25.9513 1.64171 24.2637 0.86084 22.4227 0.86084C18.8508 0.86084 15.9751 3.76008 15.9751 7.3143C15.9751 7.8257 16.0184 8.31743 16.1246 8.78556C10.7608 8.52396 6.01465 5.95319 2.82627 2.03706C2.26963 3.00281 1.94313 4.10822 1.94313 5.29821C1.94313 7.53263 3.09377 9.51332 4.80893 10.66C3.77236 10.6404 2.75546 10.3394 1.89395 9.8654C1.89395 9.88507 1.89395 9.91063 1.89395 9.9362C1.89395 13.0715 4.13034 15.6757 7.06302 16.2756C6.53785 16.4192 5.96548 16.488 5.37147 16.488C4.95841 16.488 4.54143 16.4644 4.15001 16.3779C4.98595 18.9329 7.35805 20.8113 10.1786 20.8723C7.98353 22.5894 5.19641 23.624 2.17916 23.624C1.65005 23.624 1.14259 23.6004 0.635124 23.5355C3.49306 25.3785 6.88009 26.4308 10.5327 26.4308C22.405 26.4308 28.8958 16.5962 28.8958 8.07157C28.8958 7.78636 28.886 7.51099 28.8722 7.23759C30.1527 6.32887 31.2286 5.19396 32.1058 3.88793Z" fill="#FFFFF2"/>
</svg>
